<svg xmlns="http://www.w3.org/2000/svg" viewBox="0 0 800 600" fill="none">
  <defs>
    <linearGradient id="bg" x1="96" y1="76" x2="690" y2="504" gradientUnits="userSpaceOnUse">
      <stop stop-color="#8B5CF6" stop-opacity="0.18"/>
      <stop offset="0.5" stop-color="#EC4899" stop-opacity="0.14"/>
      <stop offset="1" stop-color="#22D3EE" stop-opacity="0.2"/>
    </linearGradient>
    <linearGradient id="card" x1="220" y1="180" x2="590" y2="420" gradientUnits="userSpaceOnUse">
      <stop stop-color="#fff"/>
      <stop offset="1" stop-color="#F8F4FF"/>
    </linearGradient>
  </defs>
  <rect width="800" height="600" rx="36" fill="url(#bg)"/>
  <rect x="190" y="150" width="420" height="300" rx="28" fill="url(#card)" stroke="#C4B5FD" stroke-width="2.5"/>
  <circle cx="278" cy="266" r="48" fill="#EC4899" fill-opacity="0.2"/>
  <circle cx="278" cy="266" r="28" fill="#fff" stroke="#EC4899" stroke-width="2.5"/>
  <path d="M266 266h24m-12-12v24" stroke="#DB2777" stroke-width="2.5" stroke-linecap="round"/>
  <rect x="346" y="228" width="206" height="16" rx="8" fill="#A78BFA"/>
  <rect x="346" y="258" width="160" height="12" rx="6" fill="#D8CCFF"/>
  <rect x="346" y="284" width="136" height="12" rx="6" fill="#D8CCFF"/>
  <rect x="346" y="328" width="154" height="38" rx="14" fill="#7C5CFF"/>
  <path d="M366 347h58" stroke="#fff" stroke-width="2.5" stroke-linecap="round"/>
  <circle cx="152" cy="170" r="16" fill="#22D3EE" fill-opacity="0.32"/>
  <circle cx="652" cy="426" r="22" fill="#22D3EE" fill-opacity="0.25"/>
  <path d="M614 126h42" stroke="#7C3AED" stroke-width="2.5" stroke-linecap="round"/>
  <path d="M635 105v42" stroke="#7C3AED" stroke-width="2.5" stroke-linecap="round"/>
</svg>
