<svg xmlns="http://www.w3.org/2000/svg" viewBox="0 0 1200 900" fill="none">
  <defs>
    <linearGradient id="bg" x1="140" y1="120" x2="1020" y2="760" gradientUnits="userSpaceOnUse">
      <stop stop-color="#8B5CF6" stop-opacity="0.24"/>
      <stop offset="0.45" stop-color="#EC4899" stop-opacity="0.18"/>
      <stop offset="1" stop-color="#22D3EE" stop-opacity="0.22"/>
    </linearGradient>
    <linearGradient id="panel" x1="360" y1="220" x2="850" y2="610" gradientUnits="userSpaceOnUse">
      <stop stop-color="#fff"/>
      <stop offset="1" stop-color="#F3EEFF"/>
    </linearGradient>
    <linearGradient id="accent" x1="320" y1="430" x2="760" y2="430" gradientUnits="userSpaceOnUse">
      <stop stop-color="#7C5CFF"/>
      <stop offset="1" stop-color="#22D3EE"/>
    </linearGradient>
  </defs>
  <rect width="1200" height="900" rx="40" fill="url(#bg)"/>
  <rect x="266" y="168" width="668" height="520" rx="36" fill="url(#panel)" stroke="#A78BFA" stroke-opacity="0.34" stroke-width="2.5"/>
  <rect x="320" y="224" width="560" height="76" rx="18" fill="#fff" stroke="#C4B5FD" stroke-width="2.5"/>
  <circle cx="360" cy="262" r="10" fill="#22D3EE"/>
  <rect x="384" y="248" width="220" height="14" rx="7" fill="#A78BFA"/>
  <rect x="384" y="270" width="156" height="10" rx="5" fill="#C4B5FD"/>
  <rect x="320" y="334" width="328" height="228" rx="24" fill="#fff" stroke="#C4B5FD" stroke-width="2.5"/>
  <rect x="352" y="372" width="212" height="16" rx="8" fill="#A78BFA"/>
  <rect x="352" y="401" width="160" height="12" rx="6" fill="#D8CCFF"/>
  <rect x="352" y="430" width="144" height="12" rx="6" fill="#D8CCFF"/>
  <rect x="352" y="470" width="264" height="38" rx="14" fill="url(#accent)"/>
  <path d="M372 488h72" stroke="#fff" stroke-width="2.5" stroke-linecap="round"/>
  <circle cx="594" cy="489" r="8" fill="#fff"/>
  <rect x="674" y="334" width="206" height="228" rx="24" fill="#fff" stroke="#C4B5FD" stroke-width="2.5"/>
  <circle cx="732" cy="389" r="24" fill="#EC4899" fill-opacity="0.2"/>
  <path d="M724 389h16m-8-8v16" stroke="#DB2777" stroke-width="2.5" stroke-linecap="round"/>
  <rect x="768" y="378" width="82" height="14" rx="7" fill="#A78BFA"/>
  <rect x="768" y="404" width="64" height="10" rx="5" fill="#D8CCFF"/>
  <rect x="706" y="446" width="148" height="90" rx="16" fill="#F7F4FF"/>
  <path d="M730 478l20 20 38-38" stroke="#7C3AED" stroke-width="2.5" stroke-linecap="round" stroke-linejoin="round"/>
  <circle cx="244" cy="240" r="20" fill="#22D3EE" fill-opacity="0.4"/>
  <circle cx="970" cy="664" r="28" fill="#EC4899" fill-opacity="0.25"/>
  <path d="M942 180h56" stroke="#7C3AED" stroke-width="2.5" stroke-linecap="round"/>
  <path d="M970 152v56" stroke="#7C3AED" stroke-width="2.5" stroke-linecap="round"/>
</svg>
