<svg xmlns="http://www.w3.org/2000/svg" viewBox="0 0 800 600" fill="none">
  <defs>
    <linearGradient id="bg" x1="100" y1="70" x2="700" y2="540" gradientUnits="userSpaceOnUse">
      <stop stop-color="#8B5CF6" stop-opacity="0.2"/>
      <stop offset="1" stop-color="#22D3EE" stop-opacity="0.22"/>
    </linearGradient>
    <linearGradient id="cta" x1="226" y1="366" x2="524" y2="366" gradientUnits="userSpaceOnUse">
      <stop stop-color="#7C5CFF"/>
      <stop offset="1" stop-color="#EC4899"/>
    </linearGradient>
  </defs>
  <rect width="800" height="600" rx="36" fill="url(#bg)"/>
  <rect x="178" y="138" width="444" height="324" rx="28" fill="#fff" stroke="#C4B5FD" stroke-width="2.5"/>
  <rect x="226" y="188" width="268" height="16" rx="8" fill="#A78BFA"/>
  <rect x="226" y="216" width="198" height="12" rx="6" fill="#D8CCFF"/>
  <rect x="226" y="256" width="348" height="76" rx="16" fill="#F7F4FF" stroke="#D8CCFF" stroke-width="2.5"/>
  <path d="M248 282h304M248 306h226" stroke="#B9A9FF" stroke-width="2.5" stroke-linecap="round"/>
  <rect x="226" y="348" width="298" height="36" rx="13" fill="url(#cta)"/>
  <path d="M252 366h86" stroke="#fff" stroke-width="2.5" stroke-linecap="round"/>
  <circle cx="498" cy="366" r="7" fill="#fff"/>
  <path d="M610 250c16 8 20 30 8 44-8 10-20 14-31 13" stroke="#7C3AED" stroke-width="2.5" stroke-linecap="round"/>
  <circle cx="628" cy="196" r="20" fill="#EC4899" fill-opacity="0.22"/>
  <path d="M616 196h24" stroke="#DB2777" stroke-width="2.5" stroke-linecap="round"/>
</svg>
