<svg xmlns="http://www.w3.org/2000/svg" viewBox="0 0 800 600" fill="none">
  <defs>
    <linearGradient id="bg" x1="90" y1="60" x2="696" y2="528" gradientUnits="userSpaceOnUse">
      <stop stop-color="#8B5CF6" stop-opacity="0.18"/>
      <stop offset="0.55" stop-color="#EC4899" stop-opacity="0.18"/>
      <stop offset="1" stop-color="#22D3EE" stop-opacity="0.22"/>
    </linearGradient>
  </defs>
  <rect width="800" height="600" rx="36" fill="url(#bg)"/>
  <rect x="156" y="170" width="222" height="154" rx="24" fill="#fff" stroke="#C4B5FD" stroke-width="2.5"/>
  <path d="M224 324l-34 30v-30" fill="#fff"/>
  <rect x="192" y="214" width="148" height="14" rx="7" fill="#A78BFA"/>
  <rect x="192" y="242" width="112" height="10" rx="5" fill="#D8CCFF"/>
  <rect x="430" y="238" width="214" height="146" rx="24" fill="#fff" stroke="#C4B5FD" stroke-width="2.5"/>
  <path d="M574 384l34 30v-30" fill="#fff"/>
  <rect x="466" y="282" width="146" height="14" rx="7" fill="#22D3EE"/>
  <rect x="466" y="308" width="104" height="10" rx="5" fill="#B8F2FB"/>
  <path d="M378 264c32-18 52-14 78 8" stroke="#7C3AED" stroke-width="2.5" stroke-linecap="round"/>
  <path d="M422 286l34-14-18 32" stroke="#7C3AED" stroke-width="2.5" stroke-linecap="round" stroke-linejoin="round"/>
  <circle cx="398" cy="430" r="22" fill="#EC4899" fill-opacity="0.2"/>
  <path d="M387 430h22" stroke="#DB2777" stroke-width="2.5" stroke-linecap="round"/>
  <path d="M398 419v22" stroke="#DB2777" stroke-width="2.5" stroke-linecap="round"/>
</svg>
